HIERARCHY
ROOT Hips
{
	OFFSET 0.000000 87.230942 0.000000
	CHANNELS 6 Xposition Yposition Zposition Xrotation Yrotation Zrotation
	JOINT Pelvis
	{
		OFFSET 0.000000 0.000000 0.000000
		CHANNELS 3 Xrotation Yrotation Zrotation
		JOINT LeftUpLeg
		{
			OFFSET 12.017000 -9.376404 -2.439400
			CHANNELS 3 Xrotation Yrotation Zrotation
			JOINT LeftLeg
			{
				OFFSET -0.007312 -32.846973 2.110600
				CHANNELS 3 Xrotation Yrotation Zrotation
				JOINT LeftFoot
				{
					OFFSET 0.007312 -32.065170 -0.570400
					CHANNELS 3 Xrotation Yrotation Zrotation
					JOINT LeftToeBase
					{
						OFFSET 0.728300 -11.045900 13.180700
						CHANNELS 3 Xrotation Yrotation Zrotation
						End Site
						{
							OFFSET 0.000000 17.212589 0.000000
						}
					}
				}
				JOINT LeftPantLeg
				{
					OFFSET 0.002788 -16.709013 -3.143600
					CHANNELS 3 Xrotation Yrotation Zrotation
					End Site
					{
						OFFSET -0.605125 24.528742 0.000000
					}
				}
			}
			JOINT Left_Butt
			{
				OFFSET -6.630234 1.326584 -3.183700
				CHANNELS 3 Xrotation Yrotation Zrotation
				End Site
				{
					OFFSET -0.498041 20.188049 0.000000
				}
			}
		}
		JOINT RightUpLeg
		{
			OFFSET -11.717000 -9.376404 -2.439400
			CHANNELS 3 Xrotation Yrotation Zrotation
			JOINT RightLeg
			{
				OFFSET -0.003241 -32.846912 2.110600
				CHANNELS 3 Xrotation Yrotation Zrotation
				JOINT RightFoot
				{
					OFFSET 0.003241 -32.065136 -0.570500
					CHANNELS 3 Xrotation Yrotation Zrotation
					JOINT RightToeBase
					{
						OFFSET -0.728300 -11.045901 13.180700
						CHANNELS 3 Xrotation Yrotation Zrotation
						End Site
						{
							OFFSET 0.000000 17.212593 0.000000
						}
					}
				}
				JOINT RightPantLeg
				{
					OFFSET 0.008142 -16.708982 -3.143700
					CHANNELS 3 Xrotation Yrotation Zrotation
					End Site
					{
						OFFSET 0.605088 24.528715 0.000000
					}
				}
			}
			JOINT Right_Butt
			{
				OFFSET 6.630732 1.326584 -3.183700
				CHANNELS 3 Xrotation Yrotation Zrotation
				End Site
				{
					OFFSET 0.498015 20.188240 0.000000
				}
			}
		}
	}
	JOINT Spine
	{
		OFFSET -0.062400 7.848404 3.918300
		CHANNELS 3 Xrotation Yrotation Zrotation
		JOINT Spine1
		{
			OFFSET -0.072800 11.422302 0.713400
			CHANNELS 3 Xrotation Yrotation Zrotation
			JOINT Spine2
			{
				OFFSET -0.083200 13.054001 -1.931600
				CHANNELS 3 Xrotation Yrotation Zrotation
				JOINT Neck
				{
					OFFSET -0.092200 14.121796 -5.138800
					CHANNELS 3 Xrotation Yrotation Zrotation
					JOINT Head
					{
						OFFSET 0.000200 10.447403 -0.842000
						CHANNELS 3 Xrotation Yrotation Zrotation
						JOINT Visor
						{
							OFFSET 0.457100 25.671204 16.550400
							CHANNELS 3 Xrotation Yrotation Zrotation
							End Site
							{
								OFFSET 0.000000 26.061493 0.000000
							}
						}
						JOINT HairMidA
						{
							OFFSET 0.459400 31.585403 8.437400
							CHANNELS 3 Xrotation Yrotation Zrotation
							End Site
							{
								OFFSET 0.000000 26.061493 0.000000
							}
						}
						JOINT HairMidB
						{
							OFFSET 0.464000 33.309204 -8.389700
							CHANNELS 3 Xrotation Yrotation Zrotation
							End Site
							{
								OFFSET 0.000000 26.061493 0.000000
							}
						}
						JOINT HairMidC
						{
							OFFSET 0.466600 27.991196 -17.375099
							CHANNELS 3 Xrotation Yrotation Zrotation
							End Site
							{
								OFFSET 0.000000 26.061493 0.000000
							}
						}
						JOINT HairMidD
						{
							OFFSET 0.467700 17.888092 -21.169500
							CHANNELS 3 Xrotation Yrotation Zrotation
							End Site
							{
								OFFSET 0.000000 26.061493 0.000000
							}
						}
						JOINT HairMidE
						{
							OFFSET 5.325700 3.514603 -14.369699
							CHANNELS 3 Xrotation Yrotation Zrotation
							End Site
							{
								OFFSET 0.000000 26.061493 0.000000
							}
						}
						JOINT HairMidF
						{
							OFFSET -4.394100 3.514603 -14.372400
							CHANNELS 3 Xrotation Yrotation Zrotation
							End Site
							{
								OFFSET 0.000000 26.061493 0.000000
							}
						}
						JOINT HairLeftA
						{
							OFFSET 15.319900 25.746506 2.623300
							CHANNELS 3 Xrotation Yrotation Zrotation
							End Site
							{
								OFFSET 0.000000 26.061493 0.000000
							}
						}
						JOINT HairLeftB
						{
							OFFSET 12.619500 29.289398 -8.731499
							CHANNELS 3 Xrotation Yrotation Zrotation
							End Site
							{
								OFFSET 0.000000 26.061493 0.000000
							}
						}
						JOINT HairLeftC
						{
							OFFSET 15.714800 15.959900 2.909800
							CHANNELS 3 Xrotation Yrotation Zrotation
							End Site
							{
								OFFSET 0.000000 26.061493 0.000000
							}
						}
						JOINT HairLeftD
						{
							OFFSET 16.101700 18.437408 -7.553200
							CHANNELS 3 Xrotation Yrotation Zrotation
							End Site
							{
								OFFSET 0.000000 26.061493 0.000000
							}
						}
						JOINT HairLeftE
						{
							OFFSET 9.731900 17.915009 -18.316799
							CHANNELS 3 Xrotation Yrotation Zrotation
							End Site
							{
								OFFSET 0.000000 26.061493 0.000000
							}
						}
						JOINT HairLeftF
						{
							OFFSET 11.204300 4.953598 -9.668100
							CHANNELS 3 Xrotation Yrotation Zrotation
							End Site
							{
								OFFSET 0.000000 26.061493 0.000000
							}
						}
						JOINT HairRightA
						{
							OFFSET -14.397900 25.746307 2.615100
							CHANNELS 3 Xrotation Yrotation Zrotation
							End Site
							{
								OFFSET 0.000000 26.061493 0.000000
							}
						}
						JOINT HairRightB
						{
							OFFSET -11.691200 29.289200 -8.738199
							CHANNELS 3 Xrotation Yrotation Zrotation
							End Site
							{
								OFFSET 0.000000 26.061493 0.000000
							}
						}
						JOINT HairRightC
						{
							OFFSET -14.792900 15.959702 2.901400
							CHANNELS 3 Xrotation Yrotation Zrotation
							End Site
							{
								OFFSET 0.000000 26.061493 0.000000
							}
						}
						JOINT HairRightD
						{
							OFFSET -15.174000 18.437195 -7.561900
							CHANNELS 3 Xrotation Yrotation Zrotation
							End Site
							{
								OFFSET 0.000000 26.061493 0.000000
							}
						}
						JOINT HairRightE
						{
							OFFSET -8.798200 17.914902 -18.322001
							CHANNELS 3 Xrotation Yrotation Zrotation
							End Site
							{
								OFFSET 0.000000 26.061493 0.000000
							}
						}
						JOINT HairRightF
						{
							OFFSET -10.275200 4.953506 -9.674099
							CHANNELS 3 Xrotation Yrotation Zrotation
							End Site
							{
								OFFSET 0.000000 26.061493 0.000000
							}
						}
					}
				}
				JOINT LeftShoulder
				{
					OFFSET 5.133500 7.341202 -1.867600
					CHANNELS 3 Xrotation Yrotation Zrotation
					JOINT LeftArm
					{
						OFFSET 8.072663 0.936867 -2.176600
						CHANNELS 3 Xrotation Yrotation Zrotation
						JOINT LeftForeArm
						{
							OFFSET 31.271999 0.000000 0.000000
							CHANNELS 3 Xrotation Yrotation Zrotation
							JOINT LeftHand
							{
								OFFSET 31.771030 0.000000 0.000000
								CHANNELS 3 Xrotation Yrotation Zrotation
								JOINT LeftHandThumb1
								{
									OFFSET 2.886520 -2.557846 4.416640
									CHANNELS 3 Xrotation Yrotation Zrotation
									JOINT LeftHandThumb2
									{
										OFFSET 2.371025 -1.368912 1.368911
										CHANNELS 3 Xrotation Yrotation Zrotation
										JOINT LeftHandThumb3
										{
											OFFSET 2.243378 -1.295212 1.295213
											CHANNELS 3 Xrotation Yrotation Zrotation
											End Site
											{
												OFFSET -0.332611 2.876945 0.020015
											}
										}
									}
								}
								JOINT LeftHandIndex1
								{
									OFFSET 8.568985 -0.641945 3.119977
									CHANNELS 3 Xrotation Yrotation Zrotation
									JOINT LeftHandIndex2
									{
										OFFSET 3.348503 0.000000 0.000000
										CHANNELS 3 Xrotation Yrotation Zrotation
										JOINT LeftHandIndex3
										{
											OFFSET 3.314552 0.000000 0.000000
											CHANNELS 3 Xrotation Yrotation Zrotation
											End Site
											{
												OFFSET -1.032898 3.075485 0.678796
											}
										}
									}
								}
								JOINT LeftHandMiddle1
								{
									OFFSET 8.124603 0.000000 0.000000
									CHANNELS 3 Xrotation Yrotation Zrotation
									JOINT LeftHandMiddle2
									{
										OFFSET 4.166275 0.000000 0.000000
										CHANNELS 3 Xrotation Yrotation Zrotation
										JOINT LeftHandMiddle3
										{
											OFFSET 3.018135 0.000000 0.000000
											CHANNELS 3 Xrotation Yrotation Zrotation
											End Site
											{
												OFFSET -1.032700 2.767982 0.617226
											}
										}
									}
								}
								JOINT LeftHandRing1
								{
									OFFSET 8.571686 -0.031357 -2.884048
									CHANNELS 3 Xrotation Yrotation Zrotation
									JOINT LeftHandRing2
									{
										OFFSET 3.671181 0.000000 0.000000
										CHANNELS 3 Xrotation Yrotation Zrotation
										JOINT LeftHandRing3
										{
											OFFSET 2.728851 0.000000 0.000000
											CHANNELS 3 Xrotation Yrotation Zrotation
											End Site
											{
												OFFSET -0.815796 2.539223 0.577389
											}
										}
									}
								}
								JOINT LeftHandPinky1
								{
									OFFSET 7.854515 -0.675232 -5.213020
									CHANNELS 3 Xrotation Yrotation Zrotation
									JOINT LeftHandPinky2
									{
										OFFSET 3.068596 0.000000 0.000000
										CHANNELS 3 Xrotation Yrotation Zrotation
										JOINT LeftHandPinky3
										{
											OFFSET 2.396042 0.000000 0.000000
											CHANNELS 3 Xrotation Yrotation Zrotation
											End Site
											{
												OFFSET -0.524597 2.267998 0.567429
											}
										}
									}
								}
							}
							JOINT LeftSleeve
							{
								OFFSET 19.684509 -0.200119 0.476146
								CHANNELS 3 Xrotation Yrotation Zrotation
								End Site
								{
									OFFSET -0.031017 25.731133 -0.002868
								}
							}
						}
					}
				}
				JOINT RightShoulder
				{
					OFFSET -4.395900 7.341202 -1.870200
					CHANNELS 3 Xrotation Yrotation Zrotation
					JOINT RightArm
					{
						OFFSET -8.071453 0.936867 -2.181100
						CHANNELS 3 Xrotation Yrotation Zrotation
						JOINT RightForeArm
						{
							OFFSET -31.272011 0.000000 0.000000
							CHANNELS 3 Xrotation Yrotation Zrotation
							JOINT RightHand
							{
								OFFSET -31.771019 0.000000 0.000000
								CHANNELS 3 Xrotation Yrotation Zrotation
								JOINT RightHandThumb1
								{
									OFFSET -2.886520 -2.557808 4.416626
									CHANNELS 3 Xrotation Yrotation Zrotation
									JOINT RightHandThumb2
									{
										OFFSET -2.371056 -1.368927 1.368928
										CHANNELS 3 Xrotation Yrotation Zrotation
										JOINT RightHandThumb3
										{
											OFFSET -2.243362 -1.295204 1.295206
											CHANNELS 3 Xrotation Yrotation Zrotation
											End Site
											{
												OFFSET 0.332642 2.876938 0.020047
											}
										}
									}
								}
								JOINT RightHandIndex1
								{
									OFFSET -8.568993 -0.641953 3.120017
									CHANNELS 3 Xrotation Yrotation Zrotation
									JOINT RightHandIndex2
									{
										OFFSET -3.348518 0.000000 0.000000
										CHANNELS 3 Xrotation Yrotation Zrotation
										JOINT RightHandIndex3
										{
											OFFSET -3.314552 0.000000 0.000000
											CHANNELS 3 Xrotation Yrotation Zrotation
											End Site
											{
												OFFSET 1.032898 3.075478 0.678804
											}
										}
									}
								}
								JOINT RightHandMiddle1
								{
									OFFSET -8.124588 0.000000 0.000000
									CHANNELS 3 Xrotation Yrotation Zrotation
									JOINT RightHandMiddle2
									{
										OFFSET -4.166275 0.000000 0.000000
										CHANNELS 3 Xrotation Yrotation Zrotation
										JOINT RightHandMiddle3
										{
											OFFSET -3.018097 0.000000 0.000000
											CHANNELS 3 Xrotation Yrotation Zrotation
											End Site
											{
												OFFSET 1.032700 2.767937 0.617197
											}
										}
									}
								}
								JOINT RightHandRing1
								{
									OFFSET -8.571747 -0.031349 -2.884061
									CHANNELS 3 Xrotation Yrotation Zrotation
									JOINT RightHandRing2
									{
										OFFSET -3.671204 0.000000 0.000000
										CHANNELS 3 Xrotation Yrotation Zrotation
										JOINT RightHandRing3
										{
											OFFSET -2.728874 0.000000 0.000000
											CHANNELS 3 Xrotation Yrotation Zrotation
											End Site
											{
												OFFSET 0.815804 2.539261 0.577413
											}
										}
									}
								}
								JOINT RightHandPinky1
								{
									OFFSET -7.854561 -0.675247 -5.212970
									CHANNELS 3 Xrotation Yrotation Zrotation
									JOINT RightHandPinky2
									{
										OFFSET -3.068550 0.000000 0.000000
										CHANNELS 3 Xrotation Yrotation Zrotation
										JOINT RightHandPinky3
										{
											OFFSET -2.395981 0.000000 0.000000
											CHANNELS 3 Xrotation Yrotation Zrotation
											End Site
											{
												OFFSET 0.524605 2.267952 0.567413
											}
										}
									}
								}
							}
							JOINT RightSleeve
							{
								OFFSET -19.684753 -0.200165 0.476065
								CHANNELS 3 Xrotation Yrotation Zrotation
								End Site
								{
									OFFSET 0.031342 25.731255 -0.002917
								}
							}
						}
					}
				}
				JOINT Hood
				{
					OFFSET 0.369700 14.447800 -5.317800
					CHANNELS 3 Xrotation Yrotation Zrotation
					JOINT Hood1
					{
						OFFSET 0.001700 -5.553802 -5.895100
						CHANNELS 3 Xrotation Yrotation Zrotation
						JOINT Hood2
						{
							OFFSET -0.000200 -8.380501 0.763600
							CHANNELS 3 Xrotation Yrotation Zrotation
							End Site
							{
								OFFSET 0.000000 8.415215 0.000000
							}
						}
					}
				}
				JOINT Left_Breast
				{
					OFFSET 5.682500 3.120102 3.188800
					CHANNELS 3 Xrotation Yrotation Zrotation
					End Site
					{
						OFFSET 0.000000 10.528564 0.000000
					}
				}
				JOINT Right_Breast
				{
					OFFSET -4.947600 3.120102 3.185900
					CHANNELS 3 Xrotation Yrotation Zrotation
					End Site
					{
						OFFSET 0.000000 10.528564 0.000000
					}
				}
				JOINT Whistle
				{
					OFFSET 0.368200 11.471298 0.095400
					CHANNELS 3 Xrotation Yrotation Zrotation
					JOINT Whistle1
					{
						OFFSET -0.002000 -6.349899 7.479800
						CHANNELS 3 Xrotation Yrotation Zrotation
						JOINT Whistle2
						{
							OFFSET -0.001300 -8.217598 4.717600
							CHANNELS 3 Xrotation Yrotation Zrotation
							End Site
							{
								OFFSET 0.000000 9.475479 0.000000
							}
						}
					}
				}
			}
		}
		JOINT Belly
		{
			OFFSET 0.212400 1.593002 3.163700
			CHANNELS 3 Xrotation Yrotation Zrotation
			End Site
			{
				OFFSET 0.000000 7.496635 0.000000
			}
		}
	}
	JOINT FitGrandmaFacialAnim_Joint
	{
		OFFSET 1.150000 -86.211197 -1.220100
		CHANNELS 3 Xrotation Yrotation Zrotation
		End Site
		{
			OFFSET 0.000000 31.666618 0.000000
		}
	}
}
MOTION
Frames: 4
Frame Time: 0.016667
-5.567822 78.527946 0.041174 51.520950 -70.887603 52.519432 0.000001 -0.000001 0.000000 -48.775679 1.706262 -1.622607 45.296633 -10.323884 1.465143 -13.212076 -0.245996 -0.026208 -0.000000 -0.000000 0.000000 0.000001 -0.000000 -0.000000 -0.000001 0.000001 0.000001 -41.189514 -5.599610 -18.205004 47.924145 -4.634173 -2.346005 -19.847683 -3.295158 15.267892 -0.000000 0.000000 0.000000 -0.000002 -0.000001 -0.000000 0.000002 -0.000000 -0.000001 7.786953 3.336537 4.477320 12.707902 6.406386 6.655394 12.728357 6.436525 6.586131 3.385420 -0.460122 2.258551 8.874423 1.648275 -4.487681 0.000001 0.000000 0.000000 0.000001 0.000000 0.000000 0.000001 0.000000 0.000000 0.000001 0.000000 0.000000 0.000001 0.000000 0.000000 0.000001 0.000000 0.000000 0.000001 0.000000 0.000000 0.000001 0.000000 0.000000 0.000001 0.000000 0.000000 0.000001 0.000000 0.000000 0.000001 0.000000 0.000000 0.000001 0.000000 0.000000 0.000001 0.000000 0.000000 0.000001 0.000000 0.000000 0.000001 0.000000 0.000000 0.000001 0.000000 0.000000 0.000001 0.000000 0.000000 0.000001 0.000000 0.000000 0.000001 0.000000 0.000000 0.608279 -2.105579 -11.581403 -46.459152 -29.078803 -92.550723 -0.000006 -20.859015 -0.000011 -20.416219 18.957801 30.637934 55.682673 -2.117626 45.305584 81.950345 -1.423303 50.782477 0.000000 -0.000000 0.000000 0.230317 3.926584 -22.478590 5.723149 5.849642 -88.745310 0.000000 -0.000000 0.000002 6.341372 9.458901 -58.484294 6.990956 5.739310 -101.253327 0.000001 -0.000000 -0.000002 7.415902 8.807744 -74.918023 5.953092 5.850220 -91.000434 0.000000 0.000002 0.000001 20.711405 9.388372 -85.840718 5.062031 5.797791 -82.236639 -0.000001 0.000001 0.000001 -0.000000 0.000001 -0.000001 -0.784372 15.466939 22.252678 -56.162900 25.008335 77.070946 -0.000007 0.015612 0.000004 -12.877755 -7.607203 2.872483 -0.787127 13.150284 -22.268094 11.690767 -49.505645 19.340314 0.000000 -0.000001 -0.000001 -2.857596 -16.672242 -11.849130 4.400816 -4.650142 86.840999 0.000000 0.000003 -0.000002 6.189295 -11.029331 41.067117 5.549095 -4.571147 101.053263 0.000000 0.000000 0.000000 -0.865214 -4.640762 62.576322 4.860696 -4.652736 92.507522 -0.000001 -0.000001 0.000001 -13.667250 -1.460366 72.993152 3.233231 -4.434589 72.178140 -0.000000 0.000000 -0.000000 -0.000000 0.000001 0.000002 -0.000001 -0.000001 -0.000000 -0.000001 -0.000001 -0.000000 -0.000001 -0.000001 -0.000000 -0.000001 -0.000001 -0.000000 -0.000001 -0.000001 -0.000000 -0.000001 -0.000001 0.000000 -0.000001 -0.000001 -0.000001 -0.000001 -0.000001 -0.000001 -0.000001 -0.000001 0.000000 0.000001 -0.000001 0.000000 
-5.572081 78.539970 0.089631 51.438971 -70.870869 52.424253 -0.000000 -0.000001 -0.000000 -48.741548 1.695560 -1.663517 45.267997 -10.287645 1.464434 -13.204504 -0.256161 0.011390 0.000000 0.000000 0.000000 0.000001 0.000000 -0.000000 -0.000001 -0.000001 -0.000001 -41.121772 -5.615697 -18.250790 47.840814 -4.593668 -2.317750 -19.813305 -3.334579 15.283486 0.000000 -0.000001 -0.000000 -0.000003 0.000000 0.000000 0.000004 -0.000001 0.000000 7.788089 3.330176 4.463780 12.722934 6.393028 6.642683 12.744204 6.422143 6.572912 3.354597 -0.453965 2.186418 8.724224 1.871168 -4.553502 0.000000 0.000001 -0.000000 0.000000 0.000001 -0.000000 0.000000 0.000001 -0.000000 0.000000 0.000001 -0.000000 0.000000 0.000001 -0.000000 0.000000 0.000001 -0.000000 0.000000 0.000001 -0.000000 0.000000 0.000001 -0.000000 0.000000 0.000001 -0.000000 0.000000 0.000001 -0.000000 0.000000 0.000001 -0.000000 0.000000 0.000001 -0.000000 0.000000 0.000001 -0.000000 0.000000 0.000001 -0.000000 0.000000 0.000001 -0.000000 0.000000 0.000001 -0.000000 0.000000 0.000001 -0.000000 0.000000 0.000001 -0.000000 0.000000 0.000001 -0.000000 0.608196 -2.112958 -11.540767 -46.406378 -29.046281 -92.578139 -0.000000 -20.879922 0.000004 -20.407338 18.976304 30.509362 55.367521 -2.060206 45.240950 83.883274 -1.387120 51.818501 -0.000000 0.000002 0.000001 0.241769 3.953130 -22.443457 5.715977 5.849481 -88.675137 -0.000001 -0.000000 -0.000001 6.324663 9.455573 -58.401683 6.990970 5.739308 -101.253327 0.000001 -0.000000 -0.000003 7.408060 8.809534 -74.848471 5.949565 5.850273 -90.965996 0.000000 0.000001 0.000001 20.660083 9.415056 -85.725294 5.052611 5.796504 -82.143386 -0.000003 -0.000002 0.000001 -0.000000 0.000000 0.000000 -0.774898 15.458368 22.231168 -54.597315 24.896584 76.442903 0.000010 2.873072 0.000013 -12.870084 -9.290327 2.437217 -0.798226 13.174600 -22.271966 11.757453 -49.535899 19.412157 0.000001 0.000002 0.000001 -2.848292 -16.689900 -11.803231 4.402678 -4.650244 86.864119 -0.000002 -0.000001 0.000001 6.207325 -11.051137 41.060905 5.549103 -4.571129 101.053263 0.000004 -0.000001 0.000002 -0.875319 -4.637295 62.599394 4.858830 -4.652819 92.484286 -0.000000 -0.000000 -0.000002 -13.666180 -1.439302 72.929686 3.229965 -4.433527 72.135957 -0.000001 0.000000 -0.000000 -0.000001 -0.000000 0.000000 0.000003 0.000000 -0.000000 0.000003 0.000000 -0.000000 0.000003 0.000000 -0.000000 0.000003 0.000000 -0.000000 0.000003 0.000000 -0.000000 0.000003 0.000000 0.000000 0.000003 -0.000000 0.000001 0.000003 -0.000000 0.000001 0.000000 0.000000 0.000000 -0.000000 -0.000001 -0.000000 
-5.573198 78.550339 0.139195 51.371028 -70.848500 52.346795 -0.000000 -0.000001 0.000000 -48.717940 1.663326 -1.709110 45.229103 -10.174142 1.448852 -13.171572 -0.260294 0.019433 0.000000 0.000000 0.000000 -0.000000 -0.000000 -0.000000 -0.000001 -0.000000 0.000000 -41.069241 -5.629245 -18.300896 47.761255 -4.567639 -2.293771 -19.775942 -3.359113 15.306799 -0.000000 -0.000000 -0.000000 -0.000003 0.000001 0.000002 0.000001 -0.000000 0.000000 7.789498 3.318888 4.453052 12.734714 6.382444 6.620576 12.753682 6.413132 6.553443 3.323828 -0.449313 2.118600 8.568384 2.100354 -4.603545 -0.000002 0.000001 -0.000000 -0.000002 0.000001 -0.000000 -0.000002 0.000001 -0.000000 -0.000002 0.000001 -0.000000 -0.000002 0.000001 -0.000000 -0.000002 0.000001 -0.000000 -0.000002 0.000001 -0.000000 -0.000002 0.000001 -0.000000 -0.000002 0.000001 -0.000000 -0.000002 0.000001 -0.000000 -0.000002 0.000001 -0.000000 -0.000002 0.000001 -0.000000 -0.000002 0.000001 -0.000000 -0.000002 0.000001 -0.000000 -0.000002 0.000001 -0.000000 -0.000002 0.000001 -0.000000 -0.000002 0.000001 -0.000000 -0.000002 0.000001 -0.000000 -0.000002 0.000001 -0.000000 0.607740 -2.121759 -11.501776 -46.348789 -29.026187 -92.588719 0.000005 -20.910902 0.000000 -20.414892 18.980133 30.448191 55.053435 -2.001880 45.179840 85.655312 -1.068770 52.951619 0.000000 -0.000003 -0.000000 0.253190 3.979732 -22.408336 5.708841 5.849325 -88.604943 -0.000001 -0.000001 -0.000001 6.308007 9.452184 -58.319106 6.990960 5.739315 -101.253327 0.000001 -0.000002 -0.000005 7.400246 8.811330 -74.778946 5.946092 5.850312 -90.931633 0.000002 -0.000001 -0.000007 20.608673 9.441542 -85.609878 5.043192 5.795189 -82.050134 0.000000 -0.000002 0.000004 0.000001 0.000000 -0.000001 -0.771688 15.442474 22.219743 -54.175534 25.033933 76.267757 -0.000002 3.450919 0.000001 -13.186368 -9.532914 2.438379 -0.811482 13.198151 -22.276935 11.835161 -49.570176 19.494972 0.000002 -0.000000 -0.000002 -2.834095 -16.711504 -11.736773 4.407226 -4.650491 86.920031 0.000001 -0.000000 -0.000001 6.223073 -11.065508 41.078926 5.549098 -4.571122 101.053270 -0.000003 -0.000001 0.000000 -0.885579 -4.633932 62.624638 4.855920 -4.652928 92.448571 -0.000002 0.000000 -0.000001 -13.660856 -1.426095 72.885317 3.226686 -4.432493 72.093760 -0.000001 -0.000000 0.000001 -0.000003 0.000002 0.000003 0.000001 -0.000002 -0.000001 0.000001 -0.000002 -0.000001 0.000001 -0.000002 -0.000001 0.000001 -0.000002 -0.000001 0.000001 -0.000002 -0.000001 0.000001 -0.000002 -0.000001 0.000001 -0.000002 -0.000001 0.000001 -0.000002 -0.000001 0.000000 0.000001 -0.000001 -0.000000 -0.000001 0.000000 
-5.572407 78.559013 0.189691 51.309173 -70.823318 52.276407 -0.000001 -0.000000 0.000000 -48.704925 1.670306 -1.758173 45.212608 -10.188708 1.453471 -13.174817 -0.271098 0.064481 -0.000000 -0.000000 -0.000000 -0.000002 0.000000 0.000000 -0.000002 -0.000001 -0.000000 -41.020808 -5.629479 -18.352923 47.686964 -4.533087 -2.263192 -19.738096 -3.399604 15.327318 -0.000000 -0.000000 -0.000000 -0.000000 0.000000 0.000001 0.000001 0.000000 -0.000001 7.790669 3.313036 4.438357 12.748111 6.372657 6.603418 12.767407 6.402607 6.536464 3.292765 -0.439158 2.047269 8.416540 2.324647 -4.644370 -0.000000 -0.000000 0.000001 -0.000000 -0.000000 0.000001 -0.000000 -0.000000 0.000001 -0.000000 -0.000000 0.000001 -0.000000 -0.000000 0.000001 -0.000000 -0.000000 0.000001 -0.000000 -0.000000 0.000001 -0.000000 -0.000000 0.000001 -0.000000 -0.000000 0.000001 -0.000000 -0.000000 0.000001 -0.000000 -0.000000 0.000001 -0.000000 -0.000000 0.000001 -0.000000 -0.000000 0.000001 -0.000000 -0.000000 0.000001 -0.000000 -0.000000 0.000001 -0.000000 -0.000000 0.000001 -0.000000 -0.000000 0.000001 -0.000000 -0.000000 0.000001 -0.000000 -0.000000 0.000001 0.605202 -2.134125 -11.471708 -46.290419 -29.015327 -92.588535 -0.000006 -20.949847 0.000006 -20.434094 18.977764 30.419255 54.740394 -1.942714 45.122251 87.181033 -0.340592 54.208380 0.000001 -0.000001 -0.000001 0.264596 4.006394 -22.373263 5.701681 5.849120 -88.534722 0.000000 -0.000001 0.000002 6.291374 9.448802 -58.236522 6.990965 5.739316 -101.253340 0.000000 -0.000001 -0.000003 7.392397 8.813088 -74.709415 5.942579 5.850395 -90.897243 0.000000 0.000001 0.000001 20.557119 9.467842 -85.494420 5.033782 5.793891 -81.956908 -0.000003 -0.000001 0.000002 0.000000 0.000001 -0.000001 -0.765700 15.424792 22.200335 -53.294740 25.069711 75.930810 0.000001 4.975345 -0.000000 -13.266101 -10.397357 2.181848 -0.824684 13.208699 -22.283769 11.930279 -49.611690 19.594110 -0.000001 0.000002 -0.000000 -2.809465 -16.735784 -11.630350 4.407968 -4.650532 86.929409 0.000001 0.000001 -0.000000 6.238559 -11.074679 41.121164 5.549089 -4.571147 101.053243 -0.000002 -0.000001 0.000000 -0.896600 -4.631402 62.666132 4.854711 -4.652994 92.433394 -0.000000 0.000000 -0.000003 -13.676174 -1.418101 72.876588 3.223440 -4.431442 72.051502 -0.000001 -0.000000 -0.000000 0.000001 -0.000003 -0.000004 0.000000 -0.000001 0.000001 0.000000 -0.000001 0.000001 0.000000 -0.000001 0.000001 0.000000 -0.000001 0.000001 0.000000 -0.000001 0.000001 0.000000 -0.000001 0.000001 0.000000 -0.000001 -0.000000 0.000000 -0.000001 -0.000000 0.000001 -0.000000 -0.000000 -0.000001 -0.000000 0.000000 
